<svg width="21" height="16" viewBox="0 0 21 16" fill="none" xmlns="http://www.w3.org/2000/svg">
<path d="M13.2598 15.4832C13.0441 15.4832 12.8284 15.4038 12.6581 15.2335C12.3288 14.9042 12.3288 14.3592 12.6581 14.03L15.4123 11.2757C17.365 9.3231 17.365 6.15727 15.4123 4.20465L12.6581 1.4504C12.3288 1.12115 12.3288 0.576187 12.6581 0.246937C12.9873 -0.0823124 13.5323 -0.0823124 13.8615 0.246937L20.7531 7.13845C21.0823 7.4677 21.0823 8.01267 20.7531 8.34192L13.8615 15.2335C13.6912 15.4038 13.4755 15.4832 13.2598 15.4832Z" fill="white"/>
<path d="M19.9593 8.59157H0.851508C0.386017 8.59157 0 8.20555 0 7.74006C0 7.27457 0.386017 6.88855 0.851508 6.88855H19.9593C20.4248 6.88855 20.8109 7.27457 20.8109 7.74006C20.8109 8.20555 20.4248 8.59157 19.9593 8.59157Z" fill="white"/>
</svg>
