<svg width="30" height="30" viewBox="0 0 30 30" fill="none" xmlns="http://www.w3.org/2000/svg">
<path d="M23.4285 22.82H8.69923C7.33003 22.82 6.01616 22.2391 5.08953 21.2295C4.1629 20.2199 3.69268 18.8645 3.80333 17.4953L4.95124 3.72035C4.99273 3.29161 4.84058 2.87671 4.55015 2.55862C4.25971 2.24052 3.85865 2.07454 3.42991 2.07454H1.03727C0.47023 2.07454 0 1.60431 0 1.03727C0 0.47023 0.47023 0 1.03727 0H3.44375C4.45336 0 5.40763 0.428739 6.08531 1.16174C6.45873 1.57665 6.73535 2.06071 6.88748 2.60009H24.1615C25.5584 2.60009 26.8446 3.1533 27.785 4.14908C28.7117 5.15869 29.1819 6.47257 29.0712 7.86943L28.3244 18.2421C28.1723 20.7731 25.9594 22.82 23.4285 22.82ZM6.95663 4.6608L5.87787 17.6613C5.80872 18.4634 6.07149 19.2241 6.61087 19.8188C7.15025 20.4135 7.89708 20.7316 8.69923 20.7316H23.4285C24.8668 20.7316 26.1669 19.5145 26.2775 18.0762L27.0244 7.70348C27.0797 6.88749 26.8169 6.113 26.2775 5.54596C25.7381 4.96508 24.9913 4.64696 24.1753 4.64696H6.95663V4.6608Z" fill="white"/>
<path d="M20.7455 29.7351C19.2242 29.7351 17.9795 28.4904 17.9795 26.9691C17.9795 25.4477 19.2242 24.203 20.7455 24.203C22.2669 24.203 23.5116 25.4477 23.5116 26.9691C23.5116 28.4904 22.2669 29.7351 20.7455 29.7351ZM20.7455 26.2775C20.3583 26.2775 20.054 26.5818 20.054 26.9691C20.054 27.3563 20.3583 27.6606 20.7455 27.6606C21.1328 27.6606 21.4371 27.3563 21.4371 26.9691C21.4371 26.5818 21.1328 26.2775 20.7455 26.2775Z" fill="white"/>
<path d="M9.68109 29.7351C8.15976 29.7351 6.91504 28.4904 6.91504 26.9691C6.91504 25.4477 8.15976 24.203 9.68109 24.203C11.2024 24.203 12.4472 25.4477 12.4472 26.9691C12.4472 28.4904 11.2024 29.7351 9.68109 29.7351ZM9.68109 26.2775C9.29385 26.2775 8.98958 26.5818 8.98958 26.9691C8.98958 27.3563 9.29385 27.6606 9.68109 27.6606C10.0683 27.6606 10.3726 27.3563 10.3726 26.9691C10.3726 26.5818 10.0683 26.2775 9.68109 26.2775Z" fill="white"/>
<path d="M27.3148 10.3728H10.7184C10.1514 10.3728 9.68115 9.90253 9.68115 9.33549C9.68115 8.76845 10.1514 8.29822 10.7184 8.29822H27.3148C27.8818 8.29822 28.352 8.76845 28.352 9.33549C28.352 9.90253 27.8818 10.3728 27.3148 10.3728Z" fill="white"/>
</svg>
