<svg width="18" height="18" viewBox="0 0 18 18" fill="none" xmlns="http://www.w3.org/2000/svg">
<rect width="18" height="18" fill="#F5F5F5"/>
<g id="&#208;&#154;&#208;&#176;&#209;&#130;&#208;&#176;&#208;&#187;&#208;&#190;&#208;&#179;" clip-path="url(#clip0_1_2)">
<rect width="1920" height="4114" transform="translate(-589 -444)" fill="white"/>
<g id="Group 15">
<g id="&#208;&#164;&#208;&#184;&#208;&#187;&#209;&#140;&#209;&#130;&#209;&#128;&#209;&#139;">
<rect id="Rectangle 10" x="-209" y="-238" width="260" height="657" rx="5" fill="#F5F5F5"/>
<g id="Option">
<rect id="Rectangle 13" x="-193" y="-16" width="226" height="50" rx="5" fill="#D9D9D9"/>
<g id="&#240;&#159;&#166;&#134; icon &#34;tick circle&#34;">
<g id="Group">
<path id="Vector" d="M9 18C4.03535 18 0 13.9647 0 9C0 4.03535 4.03535 0 9 0C13.9647 0 18 4.03535 18 9C18 13.9647 13.9647 18 9 18ZM9 1.25581C4.73023 1.25581 1.25581 4.73023 1.25581 9C1.25581 13.2698 4.73023 16.7442 9 16.7442C13.2698 16.7442 16.7442 13.2698 16.7442 9C16.7442 4.73023 13.2698 1.25581 9 1.25581Z" fill="#292D32"/>
<path id="Vector_2" d="M7.81059 11.9973C7.64315 11.9973 7.48408 11.9303 7.36687 11.8131L4.99752 9.44379C4.75473 9.201 4.75473 8.79914 4.99752 8.55635C5.24031 8.31356 5.64217 8.31356 5.88497 8.55635L7.81059 10.4819L12.1138 6.17868C12.3566 5.93588 12.7585 5.93588 13.0013 6.17868C13.2441 6.42147 13.2441 6.82333 13.0013 7.06612L8.25431 11.8131C8.1371 11.9303 7.97803 11.9973 7.81059 11.9973Z" fill="#292D32"/>
</g>
</g>
</g>
</g>
</g>
</g>
<defs>
<clipPath id="clip0_1_2">
<rect width="1920" height="4114" fill="white" transform="translate(-589 -444)"/>
</clipPath>
</defs>
</svg>
