<svg width="19" height="19" viewBox="0 0 19 19" fill="none" xmlns="http://www.w3.org/2000/svg">
<path d="M13.6007 18.0503C12.652 18.0503 11.653 17.8237 10.6203 17.3871C9.61285 16.9589 8.59699 16.3712 7.60632 15.6576C6.62405 14.9356 5.67536 14.1296 4.77704 13.2481C3.88712 12.3498 3.08115 11.4011 2.36753 10.4272C1.64552 9.41975 1.06623 8.41229 0.654849 7.43841C0.218283 6.39737 0 5.38991 0 4.44122C0 3.78637 0.117537 3.1651 0.344216 2.58581C0.57929 1.98973 0.957087 1.43563 1.46921 0.957087C2.11567 0.319029 2.85447 0 3.64365 0C3.97107 0 4.30689 0.0755595 4.59234 0.209888C4.91976 0.361007 5.19682 0.587685 5.39831 0.889923L7.34606 3.63525C7.52237 3.87872 7.6567 4.1138 7.74905 4.34887C7.85819 4.60073 7.91696 4.8526 7.91696 5.09607C7.91696 5.4151 7.82461 5.72573 7.6483 6.01958C7.52237 6.24625 7.32927 6.48972 7.0858 6.73319L6.51491 7.32927C6.5233 7.35446 6.5317 7.37125 6.5401 7.38804C6.64084 7.56435 6.84233 7.86659 7.22853 8.31994C7.63991 8.79009 8.0261 9.21826 8.41229 9.61285C8.90763 10.0998 9.31901 10.486 9.7052 10.805C10.1837 11.208 10.4944 11.4095 10.6791 11.5018L10.6623 11.5438L11.2752 10.9393C11.5354 10.6791 11.7873 10.486 12.0308 10.36C12.4925 10.0746 13.0802 10.0242 13.6679 10.2677C13.8862 10.36 14.1212 10.486 14.3731 10.6623L17.1604 12.6436C17.471 12.8535 17.6977 13.1222 17.832 13.4412C17.958 13.7602 18.0167 14.0541 18.0167 14.3479C18.0167 14.7509 17.9244 15.1539 17.7481 15.5317C17.5718 15.9095 17.3535 16.2369 17.0765 16.5391C16.5979 17.0681 16.0774 17.4459 15.4729 17.6893C14.8936 17.9244 14.264 18.0503 13.6007 18.0503ZM3.64365 1.25933C3.1819 1.25933 2.75372 1.46082 2.34234 1.8638C1.95615 2.22481 1.6875 2.6194 1.51959 3.04757C1.34328 3.48413 1.25933 3.94589 1.25933 4.44122C1.25933 5.222 1.44403 6.06995 1.81343 6.94308C2.19123 7.833 2.72014 8.75651 3.39178 9.68001C4.06342 10.6035 4.82741 11.5018 5.66696 12.3498C6.50651 13.1809 7.41323 13.9533 8.34513 14.6334C9.25184 15.2966 10.1837 15.8339 11.1072 16.2201C12.5429 16.833 13.8862 16.9757 14.9944 16.514C15.4225 16.3376 15.8003 16.069 16.1445 15.6828C16.3376 15.4729 16.4888 15.2462 16.6147 14.9776C16.7154 14.7677 16.7658 14.5494 16.7658 14.3311C16.7658 14.1968 16.7406 14.0625 16.6735 13.9113C16.6483 13.861 16.5979 13.7686 16.4384 13.6595L13.6511 11.6781C13.4832 11.5606 13.3321 11.4767 13.1893 11.4179C13.0046 11.3423 12.9291 11.2668 12.6436 11.4431C12.4757 11.527 12.3246 11.653 12.1567 11.8209L11.5186 12.4505C11.1912 12.7696 10.6875 12.8451 10.3013 12.7024L10.0746 12.6016C9.73039 12.4169 9.3274 12.1315 8.88244 11.7537C8.47946 11.4095 8.04289 11.0065 7.51397 10.486C7.10259 10.0662 6.69121 9.62125 6.26304 9.12591C5.86846 8.66416 5.58301 8.26957 5.4067 7.94214L5.30596 7.69028C5.25558 7.49718 5.23879 7.38804 5.23879 7.2705C5.23879 6.96827 5.34793 6.69961 5.55782 6.48972L6.18748 5.83487C6.35539 5.66696 6.48133 5.50745 6.56528 5.36473C6.63245 5.25558 6.65763 5.16323 6.65763 5.07928C6.65763 5.01212 6.63245 4.91137 6.59047 4.81062C6.5317 4.67629 6.43935 4.52518 6.32181 4.36566L4.37406 1.61194C4.2901 1.4944 4.18936 1.41044 4.06342 1.35168C3.92909 1.29291 3.78637 1.25933 3.64365 1.25933ZM10.6623 11.5522L10.528 12.1231L10.7546 11.5354C10.7127 11.527 10.6791 11.5354 10.6623 11.5522Z" fill="#292D32"/>
</svg>
