<svg width="21" height="21" viewBox="0 0 21 21" fill="none" xmlns="http://www.w3.org/2000/svg">
<path d="M9.55401 19.108C4.28765 19.108 0 14.8204 0 9.55401C0 4.28765 4.28765 0 9.55401 0C14.8204 0 19.108 4.28765 19.108 9.55401C19.108 14.8204 14.8204 19.108 9.55401 19.108ZM9.55401 1.39815C5.05198 1.39815 1.39815 5.0613 1.39815 9.55401C1.39815 14.0467 5.05198 17.7099 9.55401 17.7099C14.0561 17.7099 17.7099 14.0467 17.7099 9.55401C17.7099 5.0613 14.0561 1.39815 9.55401 1.39815Z" fill="#292D32"/>
<path d="M19.3412 20.04C19.1641 20.04 18.987 19.9748 18.8472 19.835L16.983 17.9708C16.7127 17.7005 16.7127 17.2531 16.983 16.9828C17.2533 16.7125 17.7007 16.7125 17.971 16.9828L19.8352 18.847C20.1055 19.1173 20.1055 19.5647 19.8352 19.835C19.6954 19.9748 19.5183 20.04 19.3412 20.04Z" fill="#292D32"/>
</svg>
