<svg width="34" height="34" viewBox="0 0 34 34" fill="none" xmlns="http://www.w3.org/2000/svg">
<path d="M18.5814 21.3488H1.18605C0.537674 21.3488 0 20.8112 0 20.1628V7.51163C0 3.36837 3.36837 0 7.51163 0H21.7442C22.3926 0 22.9302 0.537674 22.9302 1.18605V17C22.9302 19.4037 20.9851 21.3488 18.5814 21.3488ZM2.37209 18.9767H18.5814C19.6726 18.9767 20.5581 18.0912 20.5581 17V2.37209H7.51163C4.68093 2.37209 2.37209 4.68093 2.37209 7.51163V18.9767Z" fill="#292D32"/>
<path d="M28.0698 30.8372H26.4884C25.84 30.8372 25.3023 30.2995 25.3023 29.6511C25.3023 28.56 24.4167 27.6744 23.3256 27.6744C22.2344 27.6744 21.3488 28.56 21.3488 29.6511C21.3488 30.2995 20.8112 30.8372 20.1628 30.8372H13.8372C13.1888 30.8372 12.6512 30.2995 12.6512 29.6511C12.6512 28.56 11.7656 27.6744 10.6744 27.6744C9.58326 27.6744 8.69767 28.56 8.69767 29.6511C8.69767 30.2995 8.16 30.8372 7.51163 30.8372H5.93023C2.65674 30.8372 0 28.1804 0 24.9069V20.1627C0 19.5144 0.537674 18.9767 1.18605 18.9767H18.5814C19.6726 18.9767 20.5581 18.0911 20.5581 17V5.93019C20.5581 5.28182 21.0958 4.74414 21.7442 4.74414H24.654C26.2195 4.74414 27.6586 5.5823 28.4335 6.9423L31.1377 11.6707C31.3433 12.0344 31.3433 12.493 31.1377 12.8567C30.9321 13.2204 30.5367 13.4418 30.1098 13.4418H28.0698C27.8484 13.4418 27.6744 13.6158 27.6744 13.8372V18.5814C27.6744 18.8027 27.8484 18.9767 28.0698 18.9767H32.814C33.4623 18.9767 34 19.5144 34 20.1627V24.9069C34 28.1804 31.3433 30.8372 28.0698 30.8372ZM27.5163 28.4651H28.0698C30.0307 28.4651 31.6279 26.8679 31.6279 24.9069V21.3488H28.0698C26.5516 21.3488 25.3023 20.0995 25.3023 18.5814V13.8372C25.3023 12.319 26.5358 11.0697 28.0698 11.0697L26.3777 8.11251C26.0298 7.49577 25.3656 7.11623 24.654 7.11623H22.9302V17C22.9302 19.4037 20.9851 21.3488 18.5814 21.3488H2.37209V24.9069C2.37209 26.8679 3.9693 28.4651 5.93023 28.4651H6.48374C7.0056 26.6465 8.68186 25.3023 10.6744 25.3023C12.667 25.3023 14.3433 26.6465 14.8651 28.4651H19.1507C19.6726 26.6465 21.3488 25.3023 23.3414 25.3023C25.334 25.3023 26.9944 26.6465 27.5163 28.4651Z" fill="#292D32"/>
<path d="M10.6743 34C8.27056 34 6.32544 32.0549 6.32544 29.6512C6.32544 27.2475 8.27056 25.3024 10.6743 25.3024C13.078 25.3024 15.0231 27.2475 15.0231 29.6512C15.0231 32.0549 13.078 34 10.6743 34ZM10.6743 27.6745C9.58311 27.6745 8.69753 28.56 8.69753 29.6512C8.69753 30.7424 9.58311 31.6279 10.6743 31.6279C11.7654 31.6279 12.651 30.7424 12.651 29.6512C12.651 28.56 11.7654 27.6745 10.6743 27.6745Z" fill="#292D32"/>
<path d="M23.3256 34C20.9219 34 18.9768 32.0549 18.9768 29.6512C18.9768 27.2475 20.9219 25.3024 23.3256 25.3024C25.7294 25.3024 27.6745 27.2475 27.6745 29.6512C27.6745 32.0549 25.7294 34 23.3256 34ZM23.3256 27.6745C22.2345 27.6745 21.3489 28.56 21.3489 29.6512C21.3489 30.7424 22.2345 31.6279 23.3256 31.6279C24.4168 31.6279 25.3024 30.7424 25.3024 29.6512C25.3024 28.56 24.4168 27.6745 23.3256 27.6745Z" fill="#292D32"/>
<path d="M32.8139 21.3489H28.0697C26.5515 21.3489 25.3022 20.0996 25.3022 18.5815V13.8373C25.3022 12.3191 26.5515 11.0698 28.0697 11.0698H30.1097C30.5367 11.0698 30.932 11.2912 31.1376 11.6708L33.8418 16.4149C33.9367 16.5889 33.9999 16.7945 33.9999 17.0001V20.1628C33.9999 20.8112 33.4622 21.3489 32.8139 21.3489ZM28.0697 13.4419C27.8483 13.4419 27.6743 13.6159 27.6743 13.8373V18.5815C27.6743 18.8028 27.8483 18.9768 28.0697 18.9768H31.6278V17.3163L29.4139 13.4419H28.0697Z" fill="#292D32"/>
</svg>
